HIERARCHY
ROOT Hips
{
	OFFSET 0.000000 71.427986 0.000000
	CHANNELS 6 Xposition Yposition Zposition Xrotation Yrotation Zrotation
	JOINT Pelvis
	{
		OFFSET 0.000000 0.000000 0.000000
		CHANNELS 3 Xrotation Yrotation Zrotation
		JOINT LeftUpLeg
		{
			OFFSET 6.797100 -2.508499 -1.318700
			CHANNELS 3 Xrotation Yrotation Zrotation
			JOINT LeftLeg
			{
				OFFSET 0.069008 -29.241863 0.690200
				CHANNELS 3 Xrotation Yrotation Zrotation
				JOINT LeftFoot
				{
					OFFSET -0.069008 -29.568123 -0.266800
					CHANNELS 3 Xrotation Yrotation Zrotation
					JOINT LeftToeBase
					{
						OFFSET 3.145500 -8.631000 16.059900
						CHANNELS 3 Xrotation Yrotation Zrotation
						End Site
						{
							OFFSET 0.000000 18.501587 0.000000
						}
					}
				}
			}
			JOINT Left_ShortSleeve
			{
				OFFSET 0.265923 -10.480953 1.153800
				CHANNELS 3 Xrotation Yrotation Zrotation
				End Site
				{
					OFFSET 1.725763 19.823879 0.000000
				}
			}
		}
		JOINT RightUpLeg
		{
			OFFSET -6.797100 -2.508499 -1.318700
			CHANNELS 3 Xrotation Yrotation Zrotation
			JOINT RightLeg
			{
				OFFSET -0.082453 -29.241932 0.688000
				CHANNELS 3 Xrotation Yrotation Zrotation
				JOINT RightFoot
				{
					OFFSET 0.082453 -29.568058 -0.264600
					CHANNELS 3 Xrotation Yrotation Zrotation
					JOINT RightToeBase
					{
						OFFSET -3.115300 -8.682800 16.113400
						CHANNELS 3 Xrotation Yrotation Zrotation
						End Site
						{
							OFFSET 0.000000 18.567114 0.000000
						}
					}
				}
			}
			JOINT Right_ShortSleeve
			{
				OFFSET -0.265923 -10.480953 1.153800
				CHANNELS 3 Xrotation Yrotation Zrotation
				End Site
				{
					OFFSET -1.725766 19.823910 0.000000
				}
			}
		}
	}
	JOINT Spine
	{
		OFFSET 0.000000 13.368103 0.470500
		CHANNELS 3 Xrotation Yrotation Zrotation
		JOINT Spine1
		{
			OFFSET 0.147000 13.837402 0.538800
			CHANNELS 3 Xrotation Yrotation Zrotation
			JOINT Spine2
			{
				OFFSET 0.168000 16.242897 -1.435500
				CHANNELS 3 Xrotation Yrotation Zrotation
				JOINT Neck
				{
					OFFSET 0.217200 18.631500 -1.679100
					CHANNELS 3 Xrotation Yrotation Zrotation
					JOINT Head
					{
						OFFSET 0.000000 6.599396 1.385900
						CHANNELS 3 Xrotation Yrotation Zrotation
						JOINT Hat
						{
							OFFSET -0.532200 27.220596 -10.096100
							CHANNELS 3 Xrotation Yrotation Zrotation
							End Site
							{
								OFFSET 0.000000 22.029861 0.000000
							}
						}
						JOINT HairD
						{
							OFFSET -10.777400 17.437393 -1.325900
							CHANNELS 3 Xrotation Yrotation Zrotation
							JOINT HairD1
							{
								OFFSET -3.290299 -11.051193 1.062200
								CHANNELS 3 Xrotation Yrotation Zrotation
								End Site
								{
									OFFSET 0.000000 11.579437 0.000000
								}
							}
						}
						JOINT HairB
						{
							OFFSET -10.777400 17.437393 1.467900
							CHANNELS 3 Xrotation Yrotation Zrotation
							JOINT HairB1
							{
								OFFSET -1.561200 -12.956299 3.590200
								CHANNELS 3 Xrotation Yrotation Zrotation
								End Site
								{
									OFFSET 0.000000 13.534866 0.000000
								}
							}
						}
						JOINT HairA
						{
							OFFSET 9.713100 17.437393 1.467900
							CHANNELS 3 Xrotation Yrotation Zrotation
							JOINT HairA1
							{
								OFFSET 1.561200 -12.956299 3.590200
								CHANNELS 3 Xrotation Yrotation Zrotation
								End Site
								{
									OFFSET 0.000000 13.534866 0.000000
								}
							}
						}
						JOINT HairC
						{
							OFFSET 9.713100 17.437393 -1.325900
							CHANNELS 3 Xrotation Yrotation Zrotation
							JOINT HairC1
							{
								OFFSET 3.290300 -11.051193 1.062200
								CHANNELS 3 Xrotation Yrotation Zrotation
								End Site
								{
									OFFSET 0.000000 11.579437 0.000000
								}
							}
						}
					}
				}
				JOINT LeftShoulder
				{
					OFFSET 5.101800 15.108002 -2.763700
					CHANNELS 3 Xrotation Yrotation Zrotation
					JOINT LeftArm
					{
						OFFSET 9.825497 2.506317 -1.597400
						CHANNELS 3 Xrotation Yrotation Zrotation
						JOINT LeftForeArm
						{
							OFFSET 21.966244 0.000000 0.000000
							CHANNELS 3 Xrotation Yrotation Zrotation
							JOINT LeftHand
							{
								OFFSET 33.879036 0.000000 0.000000
								CHANNELS 3 Xrotation Yrotation Zrotation
								JOINT LeftHandThumb1
								{
									OFFSET 6.715286 -2.359680 3.363841
									CHANNELS 3 Xrotation Yrotation Zrotation
									JOINT LeftHandThumb2
									{
										OFFSET 2.507072 -1.447464 1.447461
										CHANNELS 3 Xrotation Yrotation Zrotation
										JOINT LeftHandThumb3
										{
											OFFSET 2.898338 -1.673355 1.673357
											CHANNELS 3 Xrotation Yrotation Zrotation
											End Site
											{
												OFFSET -0.295959 3.727692 -0.131651
											}
										}
									}
								}
								JOINT LeftHandIndex1
								{
									OFFSET 14.190811 -0.254547 3.840278
									CHANNELS 3 Xrotation Yrotation Zrotation
									JOINT LeftHandIndex2
									{
										OFFSET 3.551727 0.000000 -0.000000
										CHANNELS 3 Xrotation Yrotation Zrotation
										JOINT LeftHandIndex3
										{
											OFFSET 2.894196 0.000000 0.000000
											CHANNELS 3 Xrotation Yrotation Zrotation
											End Site
											{
												OFFSET -1.000603 2.690872 0.366626
											}
										}
									}
								}
								JOINT LeftHandMiddle1
								{
									OFFSET 13.776489 0.000000 0.000000
									CHANNELS 3 Xrotation Yrotation Zrotation
									JOINT LeftHandMiddle2
									{
										OFFSET 3.438232 0.000000 0.000000
										CHANNELS 3 Xrotation Yrotation Zrotation
										JOINT LeftHandMiddle3
										{
											OFFSET 3.691551 0.000000 0.000000
											CHANNELS 3 Xrotation Yrotation Zrotation
											End Site
											{
												OFFSET -1.082298 3.499527 0.457670
											}
										}
									}
								}
								JOINT LeftHandRing1
								{
									OFFSET 13.966164 -0.268127 -3.067488
									CHANNELS 3 Xrotation Yrotation Zrotation
									JOINT LeftHandRing2
									{
										OFFSET 3.162567 0.000000 0.000000
										CHANNELS 3 Xrotation Yrotation Zrotation
										JOINT LeftHandRing3
										{
											OFFSET 3.324348 0.000000 0.000000
											CHANNELS 3 Xrotation Yrotation Zrotation
											End Site
											{
												OFFSET -0.861900 3.184998 0.405154
											}
										}
									}
								}
								JOINT LeftHandPinky1
								{
									OFFSET 13.131393 -0.168503 -5.746925
									CHANNELS 3 Xrotation Yrotation Zrotation
									JOINT LeftHandPinky2
									{
										OFFSET 2.849182 0.000000 0.000000
										CHANNELS 3 Xrotation Yrotation Zrotation
										JOINT LeftHandPinky3
										{
											OFFSET 2.805038 0.000000 0.000000
											CHANNELS 3 Xrotation Yrotation Zrotation
											End Site
											{
												OFFSET -0.882500 2.642609 0.325652
											}
										}
									}
								}
							}
							JOINT Left_Sleeve
							{
								OFFSET 6.592125 -0.646545 0.805568
								CHANNELS 3 Xrotation Yrotation Zrotation
								End Site
								{
									OFFSET -0.000179 20.275787 -0.000000
								}
							}
						}
					}
				}
				JOINT RightShoulder
				{
					OFFSET -5.731700 15.108002 -2.763700
					CHANNELS 3 Xrotation Yrotation Zrotation
					JOINT RightArm
					{
						OFFSET -9.825497 2.506317 -1.597400
						CHANNELS 3 Xrotation Yrotation Zrotation
						JOINT RightForeArm
						{
							OFFSET -21.966242 0.000000 0.000000
							CHANNELS 3 Xrotation Yrotation Zrotation
							JOINT RightHand
							{
								OFFSET -33.879032 0.000000 0.000000
								CHANNELS 3 Xrotation Yrotation Zrotation
								JOINT RightHandThumb1
								{
									OFFSET -6.715286 -2.359680 3.363841
									CHANNELS 3 Xrotation Yrotation Zrotation
									JOINT RightHandThumb2
									{
										OFFSET -2.507072 -1.447464 1.447461
										CHANNELS 3 Xrotation Yrotation Zrotation
										JOINT RightHandThumb3
										{
											OFFSET -2.898338 -1.673355 1.673357
											CHANNELS 3 Xrotation Yrotation Zrotation
											End Site
											{
												OFFSET 0.295959 3.727692 -0.131651
											}
										}
									}
								}
								JOINT RightHandIndex1
								{
									OFFSET -14.190811 -0.254547 3.840278
									CHANNELS 3 Xrotation Yrotation Zrotation
									JOINT RightHandIndex2
									{
										OFFSET -3.551727 0.000000 -0.000000
										CHANNELS 3 Xrotation Yrotation Zrotation
										JOINT RightHandIndex3
										{
											OFFSET -2.894196 0.000000 0.000000
											CHANNELS 3 Xrotation Yrotation Zrotation
											End Site
											{
												OFFSET 1.000603 2.690872 0.366626
											}
										}
									}
								}
								JOINT RightHandMiddle1
								{
									OFFSET -13.776489 0.000000 0.000000
									CHANNELS 3 Xrotation Yrotation Zrotation
									JOINT RightHandMiddle2
									{
										OFFSET -3.438232 0.000000 0.000000
										CHANNELS 3 Xrotation Yrotation Zrotation
										JOINT RightHandMiddle3
										{
											OFFSET -3.691551 0.000000 0.000000
											CHANNELS 3 Xrotation Yrotation Zrotation
											End Site
											{
												OFFSET 1.082298 3.499527 0.457670
											}
										}
									}
								}
								JOINT RightHandRing1
								{
									OFFSET -13.966164 -0.268127 -3.067488
									CHANNELS 3 Xrotation Yrotation Zrotation
									JOINT RightHandRing2
									{
										OFFSET -3.162567 0.000000 0.000000
										CHANNELS 3 Xrotation Yrotation Zrotation
										JOINT RightHandRing3
										{
											OFFSET -3.324348 0.000000 0.000000
											CHANNELS 3 Xrotation Yrotation Zrotation
											End Site
											{
												OFFSET 0.861900 3.184998 0.405154
											}
										}
									}
								}
								JOINT RightHandPinky1
								{
									OFFSET -13.131393 -0.168503 -5.746925
									CHANNELS 3 Xrotation Yrotation Zrotation
									JOINT RightHandPinky2
									{
										OFFSET -2.849182 0.000000 0.000000
										CHANNELS 3 Xrotation Yrotation Zrotation
										JOINT RightHandPinky3
										{
											OFFSET -2.805038 0.000000 0.000000
											CHANNELS 3 Xrotation Yrotation Zrotation
											End Site
											{
												OFFSET 0.882500 2.642609 0.325652
											}
										}
									}
								}
							}
							JOINT Right_Sleeve
							{
								OFFSET -6.592125 -0.646545 0.805568
								CHANNELS 3 Xrotation Yrotation Zrotation
								End Site
								{
									OFFSET 0.000179 20.275787 -0.000000
								}
							}
						}
					}
				}
				JOINT Bind_Right_JacketString
				{
					OFFSET -3.534800 11.969597 7.200700
					CHANNELS 3 Xrotation Yrotation Zrotation
					JOINT Bind_Right_JacketString1
					{
						OFFSET -0.319900 -6.102600 2.794100
						CHANNELS 3 Xrotation Yrotation Zrotation
						End Site
						{
							OFFSET 0.000000 6.719452 0.000000
						}
					}
				}
				JOINT Bind_Left_JacketString
				{
					OFFSET 2.904800 11.969597 7.200700
					CHANNELS 3 Xrotation Yrotation Zrotation
					JOINT Bind_Left_JacketString1
					{
						OFFSET 0.364800 -5.904503 3.186800
						CHANNELS 3 Xrotation Yrotation Zrotation
						End Site
						{
							OFFSET 0.000000 6.719513 0.000000
						}
					}
				}
				JOINT HairE
				{
					OFFSET 5.915200 17.612701 -11.592200
					CHANNELS 3 Xrotation Yrotation Zrotation
					JOINT HairE1
					{
						OFFSET 0.289200 -7.171898 -1.284500
						CHANNELS 3 Xrotation Yrotation Zrotation
						End Site
						{
							OFFSET 0.000000 7.291756 0.000000
						}
					}
				}
				JOINT HairF
				{
					OFFSET -0.864800 17.612701 -11.592200
					CHANNELS 3 Xrotation Yrotation Zrotation
					JOINT HairF1
					{
						OFFSET 0.000000 -14.087097 -2.127501
						CHANNELS 3 Xrotation Yrotation Zrotation
						End Site
						{
							OFFSET 0.000000 14.246841 0.000000
						}
					}
				}
				JOINT HairG
				{
					OFFSET -8.087700 17.612701 -11.592200
					CHANNELS 3 Xrotation Yrotation Zrotation
					JOINT HairG1
					{
						OFFSET -0.293600 -6.081398 -0.910100
						CHANNELS 3 Xrotation Yrotation Zrotation
						End Site
						{
							OFFSET 0.000000 6.156120 0.000000
						}
					}
				}
			}
		}
	}
	JOINT Pouch
	{
		OFFSET 0.000000 4.394501 10.847300
		CHANNELS 3 Xrotation Yrotation Zrotation
		End Site
		{
			OFFSET 0.000000 21.880577 0.000000
		}
	}
	JOINT Bag
	{
		OFFSET -13.229000 4.813004 -0.593300
		CHANNELS 3 Xrotation Yrotation Zrotation
		End Site
		{
			OFFSET 0.000000 21.880577 0.000000
		}
	}
	JOINT OccupyGuyFacialAnim_Joint
	{
		OFFSET 1.000000 -70.206398 -1.655000
		CHANNELS 3 Xrotation Yrotation Zrotation
		End Site
		{
			OFFSET 0.000000 21.880577 0.000000
		}
	}
}
MOTION
Frames: 4
Frame Time: 0.033333
3.594790 63.171204 5.775815 6.113540 -65.261208 0.272234 0.000000 0.000000 0.000000 -31.385778 21.917597 25.877813 71.611658 32.121072 -16.099596 -35.669010 -4.335991 -11.481179 -0.000000 0.000000 -0.000000 -0.000001 0.000000 -0.000000 -31.376861 31.476462 -0.567176 44.462793 16.520640 2.601655 -25.525826 -0.941560 10.612745 -0.000000 -0.000001 0.000000 -0.000001 -0.000001 -0.000004 33.111009 -2.595071 4.098874 -9.860155 -7.213486 2.163776 -9.575999 -5.701876 3.831973 -5.341433 25.699336 -19.085726 -6.566342 20.111260 -4.938561 -0.000000 0.000002 -0.000001 -0.000000 0.000002 -0.000001 -0.000000 0.000002 -0.000001 -0.000000 0.000002 0.000001 -0.000002 0.000002 -0.000001 -0.000000 0.000002 0.000001 -0.000002 0.000002 -0.000001 -0.000000 0.000002 -0.000001 -0.000000 0.000002 -0.000001 2.638012 -22.973182 -2.692991 -59.411349 -11.487657 -29.123394 62.145692 -6.782172 17.744456 -146.981095 47.608085 8.492777 17.551600 -5.699153 -12.932272 10.850526 26.127681 8.644768 0.000002 0.000002 0.000001 13.980903 1.201545 -55.004381 0.370801 1.161703 -65.441887 0.000004 0.000003 -0.000001 7.504727 1.174500 -63.778496 1.807793 1.475676 -64.567923 0.000004 0.000001 0.000001 8.574287 2.179108 -75.148986 -0.207637 1.009269 -57.855042 -0.000002 0.000000 0.000001 10.030098 13.637087 -84.750264 0.877119 0.062281 -64.595503 -0.000000 -0.000003 0.000002 0.000000 -0.000005 0.000000 6.176398 -13.843443 21.343972 32.020777 -10.934891 20.419715 11.083181 40.316482 -18.542382 -13.798055 3.097684 18.450072 15.788498 -2.734489 -17.205856 -2.198300 -31.113557 7.361293 0.000001 -0.000001 0.000002 2.363601 -3.825577 16.676243 -2.131009 -2.636143 26.863399 -0.000001 0.000002 -0.000001 -1.921248 -5.841650 21.857664 0.532378 -5.132631 35.197515 0.000002 -0.000002 0.000001 -3.296309 -8.737849 19.953182 4.029979 -4.262959 41.451260 -0.000003 0.000001 -0.000003 -6.238810 -11.430633 31.494528 10.854644 -2.681679 43.018184 -0.000003 0.000004 -0.000002 0.000004 0.000005 0.000005 0.000000 -0.000000 0.000000 0.000000 -0.000000 -0.000000 0.000000 -0.000000 0.000000 0.000000 -0.000000 0.000000 0.000000 -0.000000 0.000000 0.000000 -0.000000 -0.000000 0.000000 -0.000000 0.000000 0.000000 -0.000000 0.000000 0.000000 -0.000000 0.000000 0.000000 -0.000000 -0.000000 0.000000 0.000000 0.000000 0.000000 0.000000 0.000000 0.000000 0.000000 0.000000 
3.328431 62.611992 5.547016 11.514203 -68.916390 0.927271 -0.000000 -0.000002 0.000000 -34.781062 19.899029 31.758303 73.853661 32.146033 -16.365466 -36.244006 -3.117793 -16.429467 -0.000000 0.000000 -0.000000 -0.000000 -0.000003 -0.000003 -37.309990 30.601501 5.988042 44.516489 17.477124 2.327376 -24.870662 -0.557908 10.361974 -0.000000 0.000001 0.000000 -0.000000 0.000000 -0.000002 32.164279 -3.320657 4.113417 -9.693127 -8.526126 3.085130 -9.262490 -6.736865 5.005652 -11.741913 28.387120 -17.500198 -8.925108 21.638102 -2.278502 0.000001 -0.000001 0.000001 0.000001 -0.000001 0.000001 0.000001 -0.000001 0.000001 0.000001 -0.000001 0.000001 0.000000 -0.000001 -0.000001 0.000001 -0.000001 0.000001 0.000000 -0.000001 -0.000001 0.000001 -0.000001 0.000001 0.000001 -0.000001 0.000001 2.533332 -30.258909 -0.977139 -58.645923 -18.094979 -29.261920 67.061420 -8.105785 24.194623 -97.557750 36.413289 -12.399315 17.551604 -5.699162 -12.932273 10.850529 26.127685 8.644772 -0.000002 -0.000006 0.000001 13.980908 1.201546 -55.004377 0.370798 1.161698 -65.441887 0.000001 0.000003 -0.000003 7.504728 1.174499 -63.778503 1.807792 1.475677 -64.567923 0.000002 0.000003 -0.000001 8.574291 2.179107 -75.148986 -0.207640 1.009269 -57.855049 -0.000001 0.000001 0.000000 10.030099 13.637084 -84.750271 0.877119 0.062285 -64.595503 0.000002 -0.000003 0.000004 0.000000 -0.000000 -0.000000 5.136274 -13.358617 20.707546 42.340616 -8.741936 17.337182 8.668821 32.606046 -17.220748 -12.666004 -5.941080 19.528819 15.788498 -2.734485 -17.205853 -2.198298 -31.113554 7.361290 0.000002 0.000000 -0.000001 2.366006 -3.878148 19.262844 -2.121005 -2.686964 29.450307 -0.000001 0.000003 -0.000001 -1.899972 -5.882089 24.446424 0.611659 -5.133841 37.790344 0.000000 0.000001 -0.000002 -3.301525 -8.794124 22.538765 4.034046 -4.325984 44.037761 0.000001 0.000000 -0.000004 -6.162255 -11.449729 34.095543 10.900862 -2.716347 45.606669 0.000000 0.000004 0.000001 0.000001 0.000003 0.000003 -0.000000 0.000000 0.000000 -0.000000 0.000000 0.000000 -0.000000 0.000000 0.000000 -0.000000 0.000000 0.000000 -0.000000 0.000000 0.000000 -0.000000 0.000000 -0.000000 -0.000000 0.000000 0.000000 -0.000000 0.000000 0.000000 -0.000000 0.000000 0.000000 -0.000000 0.000000 -0.000000 -0.000000 -0.000002 0.000000 -0.000000 -0.000002 0.000000 -0.000000 -0.000002 0.000000 
2.964435 62.378075 5.364223 24.439515 -73.974446 10.850141 -0.000000 0.000001 -0.000002 -39.389305 21.071376 37.601534 76.219317 31.959309 -17.889816 -37.098688 -2.875255 -17.087994 -0.000000 -0.000000 0.000000 0.000003 -0.000001 -0.000001 -43.449231 30.434958 10.881033 43.504975 18.376878 1.999963 -23.509748 1.280737 10.554027 0.000000 0.000003 -0.000000 -0.000000 -0.000003 -0.000002 29.239579 -4.338916 1.924397 -8.878646 -9.155766 4.375994 -8.283978 -7.298186 6.232902 -17.470374 30.891101 -17.141459 -11.372623 22.667313 0.391089 0.000000 0.000001 -0.000002 0.000000 0.000001 -0.000002 0.000000 0.000001 -0.000001 0.000000 0.000001 -0.000002 0.000000 0.000001 0.000001 0.000000 0.000001 -0.000002 0.000000 0.000001 0.000001 0.000000 0.000001 -0.000002 0.000000 0.000001 -0.000002 3.985599 -33.100190 4.400702 -55.447288 -25.140330 -27.704303 69.047858 -14.512736 29.933792 -78.664388 21.919383 -14.800806 17.551600 -5.699160 -12.932273 10.850532 26.127683 8.644772 0.000001 0.000001 -0.000001 13.980905 1.201543 -55.004377 0.370798 1.161700 -65.441887 0.000000 -0.000005 0.000006 7.504725 1.174499 -63.778496 1.807794 1.475675 -64.567923 0.000000 -0.000002 0.000006 8.574289 2.179110 -75.148979 -0.207637 1.009270 -57.855049 0.000001 -0.000001 0.000001 10.030096 13.637087 -84.750271 0.877119 0.062282 -64.595510 -0.000002 -0.000001 0.000001 0.000000 -0.000000 -0.000001 4.401184 -10.680622 20.300260 49.609727 -6.571375 15.176552 6.478886 25.591447 -16.353168 -11.297479 -10.005537 17.623213 15.788496 -2.734482 -17.205851 -2.198300 -31.113557 7.361294 -0.000000 0.000000 -0.000002 2.369018 -3.913939 21.027827 -2.112865 -2.721341 31.215515 -0.000000 -0.000000 0.000000 -1.884390 -5.909155 26.212909 0.665730 -5.132571 39.559540 -0.000000 -0.000003 0.000001 -3.303588 -8.832634 24.303174 4.038426 -4.368822 45.802777 0.000001 0.000002 -0.000001 -6.109512 -11.460845 35.870385 10.933264 -2.738785 47.372942 -0.000000 0.000005 -0.000000 -0.000001 0.000001 -0.000001 0.000001 0.000000 0.000000 0.000000 0.000000 -0.000000 0.000001 0.000000 -0.000000 0.000001 0.000000 -0.000000 0.000001 0.000000 0.000000 0.000000 0.000000 -0.000000 0.000001 0.000000 -0.000000 0.000001 0.000000 -0.000000 0.000001 0.000000 0.000000 0.000000 0.000000 -0.000000 -0.000000 0.000001 -0.000002 -0.000000 0.000001 -0.000002 -0.000000 0.000001 -0.000002 
2.559483 62.461182 5.221183 43.688209 -78.528392 28.828412 -0.000000 0.000001 0.000000 -40.606253 22.460234 41.382234 77.969485 32.823806 -21.333932 -37.015401 -2.435834 -18.050238 -0.000000 0.000000 -0.000001 -0.000002 0.000002 0.000001 -47.304572 30.332983 14.357025 41.917247 20.276634 1.134205 -21.899159 2.965477 10.696837 -0.000000 0.000001 -0.000000 0.000002 -0.000003 -0.000000 27.714498 -5.031568 -0.445750 -8.464201 -9.222969 5.292828 -7.748878 -7.391462 7.049313 -20.488969 32.660370 -18.152491 -14.384022 22.911518 2.851402 -0.000002 0.000000 -0.000002 -0.000002 0.000000 -0.000002 -0.000002 0.000000 -0.000001 -0.000002 0.000000 -0.000002 -0.000002 0.000000 -0.000002 -0.000002 0.000000 -0.000002 -0.000002 0.000000 -0.000002 -0.000002 0.000000 -0.000002 -0.000002 0.000000 -0.000002 8.625591 -36.798249 14.860969 -55.417430 -23.296821 -24.785935 71.625585 -21.476246 40.187986 -72.275204 19.287679 -15.443763 17.551604 -5.699157 -12.932275 10.850529 26.127678 8.644772 0.000001 -0.000000 0.000000 13.980905 1.201543 -55.004377 0.370797 1.161698 -65.441887 -0.000001 0.000000 -0.000000 7.504731 1.174501 -63.778496 1.807795 1.475675 -64.567916 0.000000 -0.000002 -0.000005 8.574293 2.179110 -75.148979 -0.207637 1.009267 -57.855049 0.000000 0.000001 -0.000003 10.030100 13.637087 -84.750271 0.877119 0.062284 -64.595510 -0.000000 0.000001 0.000003 0.000002 0.000003 -0.000001 3.755016 -6.918379 19.578360 54.007535 -4.191621 15.599474 4.652469 18.868275 -15.913313 -10.235049 -10.053674 14.062442 15.788495 -2.734481 -17.205848 -2.198299 -31.113557 7.361293 -0.000002 0.000002 0.000002 2.370941 -3.931682 21.904116 -2.108438 -2.738307 32.091832 -0.000001 -0.000004 -0.000002 -1.876336 -5.922392 27.089895 0.692540 -5.131345 40.437831 0.000001 0.000000 -0.000001 -3.304147 -8.851737 25.179178 4.041094 -4.390033 46.679029 -0.000001 -0.000001 -0.000002 -6.083188 -11.465740 36.751523 10.949577 -2.749536 48.249798 0.000001 -0.000000 0.000000 0.000001 -0.000000 -0.000001 0.000000 -0.000001 0.000001 0.000001 0.000001 0.000000 0.000000 -0.000001 0.000000 0.000000 -0.000001 0.000000 0.000000 -0.000001 0.000001 0.000001 0.000001 0.000000 0.000000 -0.000001 0.000000 0.000000 -0.000001 0.000000 0.000000 -0.000001 0.000001 0.000001 0.000001 0.000000 -0.000000 0.000001 0.000000 -0.000000 0.000001 0.000000 -0.000000 0.000001 0.000000 
